HIERARCHY
ROOT Hips
{
	OFFSET 0.000000 0.000000 0.000000
	CHANNELS 6 Xposition Yposition Zposition Zrotation Yrotation Xrotation 
	JOINT LHipJoint
	{
		OFFSET 0.000000 0.000000 0.000000
		CHANNELS 3 Zrotation Yrotation Xrotation
		JOINT LeftUpLeg
		{
			OFFSET 1.363060 -1.794630 0.839290
			CHANNELS 3 Zrotation Yrotation Xrotation
			JOINT LeftLeg
			{
				OFFSET 2.448110 -6.726130 0.000000
				CHANNELS 3 Zrotation Yrotation Xrotation
				JOINT LeftFoot
				{
					OFFSET 2.562200 -7.039590 0.000000
					CHANNELS 3 Zrotation Yrotation Xrotation
					JOINT LeftToeBase
					{
						OFFSET 0.157640 -0.433110 2.322550
						CHANNELS 3 Zrotation Yrotation Xrotation
						End Site
						{
							OFFSET 0.000000 0.000000 0.000000
						}
					}
				}
			}
		}
	}
	JOINT RHipJoint
	{
		OFFSET 0.000000 0.000000 0.000000
		CHANNELS 3 Zrotation Yrotation Xrotation
		JOINT RightUpLeg
		{
			OFFSET -1.305520 -1.794630 0.839290
			CHANNELS 3 Zrotation Yrotation Xrotation
			JOINT RightLeg
			{
				OFFSET -2.542530 -6.985550 0.000000
				CHANNELS 3 Zrotation Yrotation Xrotation
				JOINT RightFoot
				{
					OFFSET -2.568260 -7.056230 0.000000
					CHANNELS 3 Zrotation Yrotation Xrotation
					JOINT RightToeBase
					{
						OFFSET -0.164730 -0.452590 2.363150
						CHANNELS 3 Zrotation Yrotation Xrotation
						End Site
						{
							OFFSET 0.000000 0.000000 0.000000
						}
					}
				}
			}
		}
	}
	JOINT LowerBack
	{
		OFFSET 0.000000 0.000000 0.000000
		CHANNELS 3 Zrotation Yrotation Xrotation
		JOINT Spine
		{
			OFFSET 0.028270 2.035590 -0.193380
			CHANNELS 3 Zrotation Yrotation Xrotation
			JOINT Spine1
			{
				OFFSET 0.056720 2.048850 -0.042750
				CHANNELS 3 Zrotation Yrotation Xrotation
				JOINT Neck
				{
					OFFSET 0.000000 0.000000 0.000000
					CHANNELS 3 Zrotation Yrotation Xrotation
					JOINT Neck1
					{
						OFFSET -0.054170 1.746240 0.172020
						CHANNELS 3 Zrotation Yrotation Xrotation
						JOINT Head
						{
							OFFSET 0.104070 1.761360 -0.123970
							CHANNELS 3 Zrotation Yrotation Xrotation
							End Site
							{
								OFFSET 0.000000 0.000000 0.000000
							}
						}
					}
				}
				JOINT LeftShoulder
				{
					OFFSET 0.000000 0.000000 0.000000
					CHANNELS 3 Zrotation Yrotation Xrotation
					JOINT LeftArm
					{
						OFFSET 3.362410 1.200890 -0.311210
						CHANNELS 3 Zrotation Yrotation Xrotation
						JOINT LeftForeArm
						{
							OFFSET 4.983000 -0.000000 -0.000000
							CHANNELS 3 Zrotation Yrotation Xrotation
							JOINT LeftHand
							{
								OFFSET 3.483560 -0.000000 -0.000000
								CHANNELS 3 Zrotation Yrotation Xrotation
								JOINT LeftFingerBase
								{
									OFFSET 0.000000 0.000000 0.000000
									CHANNELS 3 Zrotation Yrotation Xrotation
									JOINT LeftHandIndex1
									{
										OFFSET 0.715260 -0.000000 -0.000000
										CHANNELS 3 Zrotation Yrotation Xrotation
										End Site
										{
											OFFSET 0.000000 0.000000 0.000000
										}
									}
								}
								JOINT LThumb
								{
									OFFSET 0.000000 0.000000 0.000000
									CHANNELS 3 Zrotation Yrotation Xrotation
									End Site
									{
										OFFSET 0.000000 0.000000 0.000000
									}
								}
							}
						}
					}
				}
				JOINT RightShoulder
				{
					OFFSET 0.000000 0.000000 0.000000
					CHANNELS 3 Zrotation Yrotation Xrotation
					JOINT RightArm
					{
						OFFSET -3.136600 1.374050 -0.404650
						CHANNELS 3 Zrotation Yrotation Xrotation
						JOINT RightForeArm
						{
							OFFSET -5.241900 -0.000000 -0.000000
							CHANNELS 3 Zrotation Yrotation Xrotation
							JOINT RightHand
							{
								OFFSET -3.444170 -0.000000 -0.000000
								CHANNELS 3 Zrotation Yrotation Xrotation
								JOINT RightFingerBase
								{
									OFFSET 0.000000 0.000000 0.000000
									CHANNELS 3 Zrotation Yrotation Xrotation
									JOINT RightHandIndex1
									{
										OFFSET -0.622530 -0.000000 -0.000000
										CHANNELS 3 Zrotation Yrotation Xrotation
										End Site
										{
											OFFSET 0.000000 0.000000 0.000000
										}
									}
								}
								JOINT RThumb
								{
									OFFSET 0.000000 0.000000 0.000000
									CHANNELS 3 Zrotation Yrotation Xrotation
									End Site
									{
										OFFSET 0.000000 0.000000 0.000000
									}
								}
							}
						}
					}
				}
			}
		}
	}
}
MOTION
Frames: 8
Frame Time: 0.008333
0.705983 17.255968 1.330595 -5.892515 -5.703959 3.887228 0.661284 4.430492 4.864411 -8.396951 5.850887 -17.945145 25.486451 17.349204 108.178871 1.978615 0.336300 29.260397 0.061693 -0.960922 -2.650049 -1.470192 -4.280200 4.307780 31.794915 14.128836 -19.507551 -4.862331 -11.828366 40.979818 -0.122170 -2.260022 -11.010713 -0.001436 0.146481 -0.402385 3.803815 -0.717732 7.835844 7.668475 -1.557038 20.450301 -2.598206 0.080232 -14.623985 -1.763137 2.547673 -4.412715 -4.039156 3.421639 -9.398832 -1.300896 1.910576 -3.175377 -5.372925 5.235872 -2.950568 -75.474397 14.131749 50.526968 122.766123 -61.808265 -89.065208 0.792403 -0.807540 -23.156332 38.417593 7.334732 6.758511 -7.125000 0.000000 0.000000 9.858990 40.796621 -1.033198 4.381040 -3.741922 -3.052476 72.581270 4.230696 40.163208 -71.425643 58.049776 -51.678195 1.446512 1.358297 -0.677379 -41.033702 26.666174 -20.691551 7.125000 0.000000 0.000000 -7.801380 1.274438 -8.047249
0.701219 17.246794 1.513381 -5.794661 -5.658401 3.877735 0.655350 4.352414 4.800312 -8.396708 5.470511 -19.104428 25.801294 17.299926 109.238951 1.952893 -0.068515 29.128148 0.000635 -0.068155 -0.187246 -1.469779 -4.282042 4.328794 31.699374 13.819206 -18.886744 -4.889691 -11.811096 41.052472 -0.149762 -2.198895 -11.272725 -0.004159 0.134629 -0.370081 3.804299 -0.682508 7.826463 7.497165 -1.514411 20.588438 -2.574930 0.117496 -14.555233 -1.643161 2.521500 -4.382465 -4.089564 3.382361 -9.613280 -1.331011 1.892682 -3.244337 -5.342534 5.237346 -2.978449 -75.516816 14.774605 50.409315 122.357754 -61.950594 -88.776903 0.791501 -0.822938 -23.194141 38.284440 7.315213 6.724192 -7.125000 0.000000 0.000000 9.745978 40.776233 -1.026251 4.374714 -3.712869 -3.020031 72.788483 5.157003 39.942889 -72.336564 58.280206 -52.512991 1.446485 1.362733 -0.657383 -41.145238 26.899038 -20.922494 7.125000 0.000000 0.000000 -7.815622 1.571598 -8.102068
0.695848 17.258580 1.701293 -5.662288 -5.468226 3.888116 0.651326 4.258205 4.718688 -8.465846 4.925169 -20.310440 26.045682 17.265007 110.066277 1.899285 -0.454576 28.847338 0.002191 0.139908 0.384490 -1.465735 -4.279517 4.344833 31.596218 13.425367 -18.338531 -4.897003 -11.778332 41.050635 -0.158859 -2.305736 -11.579874 -0.023498 0.688115 -1.892401 3.797396 -0.687154 7.888994 7.329177 -1.513305 20.614166 -2.546018 0.128937 -14.570545 -1.540689 2.481529 -4.262051 -4.115704 3.319385 -9.839677 -1.352451 1.863303 -3.331928 -5.319070 5.247100 -3.004655 -75.557212 15.436629 50.254670 122.035116 -62.060814 -88.548265 0.790410 -0.840167 -23.529835 37.854723 7.362210 6.669287 -7.125000 0.000000 0.000000 9.377130 40.804289 -0.980451 4.374965 -3.692446 -2.987669 73.008798 5.988990 39.746388 -73.241717 58.510818 -53.347646 1.442823 1.375225 -0.501203 -41.149165 26.885825 -20.897357 7.125000 0.000000 0.000000 -7.821770 1.532531 -8.103313
0.690477 17.270365 1.889205 -5.529915 -5.278051 3.898497 0.647301 4.163996 4.637064 -8.534983 4.379827 -21.516451 26.290069 17.230088 110.893603 1.845676 -0.840637 28.566528 0.003748 0.347971 0.956226 -1.461690 -4.276993 4.360871 31.493063 13.031528 -17.790319 -4.904315 -11.745568 41.048798 -0.167956 -2.412576 -11.887022 -0.042838 1.241602 -3.414722 3.790493 -0.691800 7.951525 7.161189 -1.512199 20.639894 -2.517106 0.140378 -14.585857 -1.438216 2.441557 -4.141637 -4.141844 3.256408 -10.066074 -1.373892 1.833925 -3.419519 -5.295606 5.256854 -3.030861 -75.597607 16.098653 50.100026 121.712479 -62.171035 -88.319626 0.789318 -0.857396 -23.865528 37.425007 7.409208 6.614382 -7.125000 0.000000 0.000000 9.008282 40.832345 -0.934651 4.375217 -3.672024 -2.955307 73.229113 6.820977 39.549888 -74.146870 58.741430 -54.182302 1.439161 1.387718 -0.345024 -41.153092 26.872611 -20.872220 7.125000 0.000000 0.000000 -7.827918 1.493463 -8.104558
0.687275 17.263279 2.068665 -5.496542 -5.066997 3.947953 0.662609 4.067166 4.545190 -8.500937 3.802692 -22.847612 26.540512 17.195176 111.748044 1.766821 -1.414716 28.131301 0.014166 -0.022426 -0.062289 -1.458981 -4.267357 4.381318 31.498543 12.683514 -17.298759 -4.910057 -11.711829 41.043186 -0.184421 -2.528554 -12.281862 -0.106964 1.928042 -5.313461 3.869023 -0.692852 7.930375 7.060629 -1.506965 20.715374 -2.543994 0.150745 -14.530882 -1.347361 2.382252 -4.158864 -4.152352 3.177304 -10.204714 -1.387952 1.794178 -3.462173 -5.271864 5.255876 -3.052946 -75.657244 16.633305 50.010075 121.406262 -62.273971 -88.103300 0.787707 -0.869868 -24.303099 37.249128 7.356491 6.546172 -7.125000 0.000000 0.000000 8.861634 40.764702 -0.933739 4.364433 -3.644878 -2.918398 73.445294 7.733543 39.312155 -75.076125 58.968316 -55.018174 1.430177 1.398683 -0.213450 -41.343413 26.824090 -20.940195 7.125000 0.000000 0.000000 -7.947815 1.475885 -8.228841
0.685265 17.245813 2.243478 -5.517618 -4.844458 4.018899 0.688550 3.968894 4.447678 -8.410139 3.208072 -24.247604 26.794285 17.160267 112.617400 1.674079 -2.092205 27.611144 0.029459 -0.710976 -1.955442 -1.457007 -4.253809 4.404191 31.563774 12.360703 -16.838357 -4.914934 -11.677553 41.035498 -0.204939 -2.649557 -12.724931 -0.195722 2.687607 -7.419230 3.994542 -0.691927 7.863199 6.997155 -1.499462 20.818218 -2.601572 0.160520 -14.437248 -1.262896 2.312314 -4.251794 -4.154262 3.089330 -10.295088 -1.397952 1.748728 -3.480112 -5.247969 5.248996 -3.072764 -75.727464 17.097902 49.955705 121.109076 -62.372902 -87.893747 0.785810 -0.879724 -24.796703 37.212860 7.248931 6.470644 -7.125000 0.000000 0.000000 8.837197 40.644424 -0.957514 4.347579 -3.614034 -2.878987 73.659201 8.690428 39.051745 -76.018636 59.193153 -55.854715 1.418265 1.408808 -0.095409 -41.636253 26.756151 -21.059383 7.125000 0.000000 0.000000 -8.130274 1.470126 -8.420795
0.683131 17.228795 2.418496 -5.543467 -4.634651 4.087810 0.715685 3.871622 4.350547 -8.316156 2.626330 -25.640516 27.042496 17.127186 113.466905 1.578529 -2.771947 27.065824 0.055195 -1.432813 -3.942911 -1.455212 -4.240934 4.427241 31.634329 12.044816 -16.361652 -4.917924 -11.640613 41.019197 -0.225850 -2.765204 -13.161884 -0.285236 3.427563 -9.472244 4.117320 -0.685134 7.797347 6.940213 -1.485468 20.919148 -2.660136 0.173936 -14.344573 -1.188762 2.241779 -4.340940 -4.146195 3.000280 -10.377877 -1.403694 1.702526 -3.496375 -5.224572 5.241934 -3.092493 -75.799632 17.565362 49.903659 120.822699 -62.469344 -87.690706 0.783431 -0.888373 -25.291712 37.219360 7.156423 6.415901 -7.125000 0.000000 0.000000 8.852072 40.546327 -0.980452 4.330190 -3.584181 -2.839834 73.871290 9.638508 38.790396 -76.954904 59.415790 -56.683540 1.406397 1.417766 0.024484 -41.940850 26.705541 -21.200271 7.125000 0.000000 0.000000 -8.315106 1.490483 -8.619236
0.679460 17.217280 2.596053 -5.627954 -4.581269 4.131715 0.757483 3.786629 4.258108 -8.183038 2.202791 -26.946442 27.222372 17.116573 114.072532 1.448480 -3.479375 26.211357 0.209249 -2.563600 -7.089113 -1.455626 -4.236327 4.452467 31.770289 11.814010 -15.684652 -4.897733 -11.570929 40.897073 -0.251601 -2.815033 -13.523678 -0.384034 3.926611 -10.877128 4.206432 -0.606245 7.747756 6.963532 -1.391739 20.996563 -2.730815 0.232072 -14.263666 -1.241545 2.163927 -4.383595 -4.015538 2.898025 -10.367469 -1.357116 1.647077 -3.492056 -5.207299 5.232654 -3.111135 -75.895727 18.068003 49.880164 120.669121 -62.535215 -87.567670 0.775134 -0.882192 -25.803983 37.751299 7.248821 6.616532 -7.125000 0.000000 0.000000 9.349914 40.720731 -0.993098 4.306218 -3.566500 -2.803838 74.061042 10.478412 38.517520 -77.814469 59.611395 -57.417571 1.395073 1.412379 0.167130 -42.389914 26.867839 -21.607759 7.125000 0.000000 0.000000 -8.529084 1.831704 -8.897379
